<svg xmlns="http://www.w3.org/2000/svg" version="1.1" xmlns:xlink="http://www.w3.org/1999/xlink" xmlns:svgjs="http://svgjs.dev/svgjs" width="553" height="800"><svg width="553" height="800" viewBox="0 0 553 800" fill="none" xmlns="http://www.w3.org/2000/svg">
<path d="M552.242 147.284C551.94 189.88 547.768 230.917 537.022 270.967C525.097 315.393 502.92 354.012 469.438 386.122C456.733 398.294 444.013 410.944 433.919 425.233C418.253 447.399 420.514 474.019 437.708 494.896C448.932 508.516 461.35 521.182 472.224 535.057C490.645 558.559 499.449 585.864 502.999 615.365C505.658 637.418 505.801 659.17 501.089 680.874C490.326 730.503 460.793 764.745 414.512 784.651C384.039 797.763 352.007 802.059 318.955 799.115C287.751 796.331 264.045 774.961 258.52 744.251C257.772 740.082 256.721 735.834 256.896 731.665C257.82 709.563 243.555 698.966 225.707 692.951C201.715 684.868 176.767 679.585 152.79 671.454C136.679 665.996 120.503 659.313 106.222 650.275C87.1651 638.198 80.7331 613.312 88.8527 590.017C95.014 572.355 102.831 555.281 109.677 537.858C122.907 504.204 124.404 470.121 113.96 435.321C106.031 408.876 90.0786 387.299 73.6006 365.993C53.6838 340.248 35.152 313.675 23.1318 283.204C13.6749 259.288 6.65386 234.593 4.4568 208.927C2.16421 182.068 -0.542316 155.065 0.0945139 128.19C0.954235 92.2927 12.3057 59.2119 40.183 34.7712C76.7529 2.74057 119.102 -5.53362 164.253 13.0037C191.351 24.1262 205.042 47.4689 207.255 76.5718C211.044 126.217 195.219 168.861 161.133 205.347C148.969 218.363 137.889 232.763 128.448 247.863C114.899 269.535 113.609 294.326 114.915 319.212C116.81 355.316 125.948 388.922 148.794 417.898C164.667 438.026 185.157 452.777 205.488 467.909C219.817 478.57 233.763 489.931 246.723 502.215C261.258 515.979 266.974 534.055 267.054 553.897C267.149 578.21 271.4 601.569 281.414 623.957C296.762 658.295 334.351 678.964 371.207 671.358C393.576 666.744 408.669 652.439 415.992 630.704C426.229 600.344 424.016 571.416 404.959 544.732C393.671 528.915 377.862 518.445 361.894 508.087C346.419 498.046 330.705 488.308 315.819 477.44C286.206 455.832 295.011 401.954 332.775 393.744C349.253 390.148 366.128 388.19 382.893 386.058C399.992 383.878 417.027 381.953 431.626 371.483C442.946 363.368 448.089 351.752 449.888 338.577C454.6 304.112 441.609 276.155 417.393 252.462C398.559 234.036 379.024 216.246 361.273 196.818C331.039 163.753 321.757 123.496 328.349 80.2792C335.991 30.1409 377.48 -1.20558 431.42 0.035548C482.223 1.19712 519.143 24.2375 540.19 70.8276C551.335 95.4433 553.659 121.73 552.242 147.284Z" fill="black"></path>
</svg><style>@media (prefers-color-scheme: light) { :root { filter: none; } }
@media (prefers-color-scheme: dark) { :root { filter: invert(100%); } }
</style></svg>